<svg width="27" height="27" viewBox="0 0 27 27" fill="none" xmlns="http://www.w3.org/2000/svg">
<path d="M13.3929 2.41176C16.9713 2.41176 17.395 2.42746 18.8023 2.49023C20.1102 2.54778 20.8165 2.76751 21.2873 2.95061C21.9099 3.19127 22.3598 3.48424 22.8254 3.94985C23.2962 4.42069 23.584 4.86537 23.8246 5.48793C24.0077 5.95878 24.2275 6.67027 24.285 7.97294C24.3478 9.38546 24.3635 9.80922 24.3635 13.3824C24.3635 16.9608 24.3478 17.3846 24.285 18.7919C24.2275 20.0998 24.0077 20.806 23.8246 21.2769C23.584 21.8994 23.291 22.3493 22.8254 22.8149C22.3546 23.2858 21.9099 23.5735 21.2873 23.8142C20.8165 23.9973 20.105 24.217 18.8023 24.2746C17.3898 24.3373 16.966 24.353 13.3929 24.353C9.81445 24.353 9.3907 24.3373 7.9834 24.2746C6.6755 24.217 5.96924 23.9973 5.4984 23.8142C4.87584 23.5735 4.42592 23.2806 3.96031 22.8149C3.48947 22.3441 3.20173 21.8994 2.96108 21.2769C2.77797 20.806 2.55825 20.0945 2.5007 18.7919C2.43792 17.3793 2.42222 16.9556 2.42222 13.3824C2.42222 9.80399 2.43792 9.38023 2.5007 7.97294C2.55825 6.66504 2.77797 5.95878 2.96108 5.48793C3.20173 4.86537 3.4947 4.41546 3.96031 3.94985C4.43115 3.479 4.87584 3.19127 5.4984 2.95061C5.96924 2.76751 6.68073 2.54778 7.9834 2.49023C9.3907 2.42746 9.81445 2.41176 13.3929 2.41176ZM13.3929 0C9.75691 0 9.30176 0.0156948 7.87354 0.0784738C6.45054 0.141253 5.47224 0.371442 4.62472 0.701032C3.74058 1.04632 2.99247 1.50146 2.24958 2.24958C1.50147 2.99247 1.04632 3.74058 0.701032 4.61949C0.371443 5.47224 0.141253 6.44531 0.0784738 7.8683C0.0156948 9.30176 0 9.75691 0 13.3929C0 17.0288 0.0156948 17.484 0.0784738 18.9122C0.141253 20.3352 0.371443 21.3135 0.701032 22.161C1.04632 23.0451 1.50147 23.7932 2.24958 24.5361C2.99247 25.279 3.74058 25.7394 4.61949 26.0795C5.47224 26.409 6.44531 26.6392 7.8683 26.702C9.29653 26.7648 9.75167 26.7805 13.3876 26.7805C17.0236 26.7805 17.4787 26.7648 18.9069 26.702C20.3299 26.6392 21.3082 26.409 22.1558 26.0795C23.0347 25.7394 23.7828 25.279 24.5257 24.5361C25.2686 23.7932 25.7289 23.0451 26.069 22.1662C26.3986 21.3135 26.6288 20.3404 26.6915 18.9174C26.7543 17.4892 26.77 17.034 26.77 13.3981C26.77 9.76214 26.7543 9.30699 26.6915 7.87877C26.6288 6.45578 26.3986 5.47747 26.069 4.62995C25.7394 3.74058 25.2843 2.99247 24.5361 2.24958C23.7933 1.5067 23.0451 1.04632 22.1662 0.706264C21.3135 0.376674 20.3404 0.146484 18.9174 0.0837054C17.484 0.0156948 17.0288 0 13.3929 0Z" fill="#F9F9F9"/>
<path d="M13.3929 6.51332C9.59473 6.51332 6.51332 9.59473 6.51332 13.3929C6.51332 17.191 9.59473 20.2724 13.3929 20.2724C17.191 20.2724 20.2724 17.191 20.2724 13.3929C20.2724 9.59473 17.191 6.51332 13.3929 6.51332ZM13.3929 17.8554C10.9288 17.8554 8.93032 15.8569 8.93032 13.3929C8.93032 10.9288 10.9288 8.93032 13.3929 8.93032C15.8569 8.93032 17.8554 10.9288 17.8554 13.3929C17.8554 15.8569 15.8569 17.8554 13.3929 17.8554Z" fill="#F9F9F9"/>
<path d="M22.1505 6.2413C22.1505 7.13067 21.4286 7.8474 20.5444 7.8474C19.6551 7.8474 18.9383 7.12544 18.9383 6.2413C18.9383 5.35193 19.6603 4.6352 20.5444 4.6352C21.4286 4.6352 22.1505 5.35716 22.1505 6.2413Z" fill="#F9F9F9"/>
</svg>
