<svg width="1318" height="418" viewBox="0 0 1318 418" fill="none" xmlns="http://www.w3.org/2000/svg">
<path d="M26.8983 64.9794C30.3021 102.53 66.8123 132.322 107.714 149.272C148.615 166.221 194.788 173.534 237.825 186.84C262.342 194.41 286.451 204.77 306.074 218.537C378.787 276.514 325.443 351.057 325.443 351.057C305.103 322.765 266.506 315.339 226.956 307.51C187.4 299.66 145.534 295.419 111.007 278.411C69.8164 258.076 44.1751 221.537 32.9637 183.235C21.7383 144.956 23.4458 104.635 26.8931 64.9602L26.8983 64.9794Z" fill="#F27F20"/>
<path d="M59.2213 257.844C75.6464 282.527 108.913 296.905 142.519 305.4C176.131 313.914 210.786 321.551 244.314 328.521C268.585 333.56 294.434 341.104 308.288 356.808C307.603 356.559 284.226 365.008 238.836 376.077C238.836 376.077 186.577 391.131 146.448 384.755C144.466 384.359 142.47 383.987 140.525 383.498L140.563 383.487C128.665 381.316 117.42 377.733 107.401 372.111C86.1341 360.207 73.1447 340.808 66.6848 320.546C60.225 300.283 59.707 278.965 59.202 257.849L59.2213 257.844Z" fill="#CB5C00"/>
<path d="M1290.48 64.9794C1287.08 102.53 1250.57 132.322 1209.67 149.272C1168.77 166.221 1122.59 173.534 1079.56 186.84C1055.04 194.41 1030.93 204.77 1011.31 218.537C938.595 276.514 991.939 351.057 991.939 351.057C1012.28 322.765 1050.88 315.339 1090.43 307.51C1129.98 299.66 1171.85 295.419 1206.38 278.411C1247.57 258.076 1273.21 221.537 1284.42 183.235C1295.64 144.956 1293.94 104.635 1290.49 64.9602L1290.48 64.9794Z" fill="#F27F20"/>
<path d="M1258.16 257.844C1241.74 282.527 1208.47 296.905 1174.86 305.4C1141.25 313.914 1106.6 321.551 1073.07 328.521C1048.8 333.56 1022.95 341.104 1009.09 356.808C1009.78 356.559 1033.16 365.008 1078.55 376.077C1078.55 376.077 1130.8 391.131 1170.93 384.755C1172.92 384.359 1174.91 383.987 1176.86 383.498L1176.82 383.487C1188.72 381.316 1199.96 377.733 1209.98 372.111C1231.25 360.207 1244.24 340.808 1250.7 320.546C1257.16 300.283 1257.68 278.965 1258.18 257.849L1258.16 257.844Z" fill="#CB5C00"/>
<path d="M789.868 239.009C791.567 248.849 784.288 256.378 775.011 263.518C765.733 270.658 754.453 275.695 744.381 282.049C738.643 285.667 733.2 289.97 729.135 294.837C714.546 314.655 733.253 330.07 733.253 330.07C736.508 321.437 745.849 316.891 755.404 312.177C764.96 307.457 775.353 303.502 782.999 296.783C792.119 288.757 796.163 277.651 796.405 267.083C796.652 256.52 792.082 237.274 787.746 236.407L789.868 239.009Z" fill="#223F82"/>
<path d="M784.78 331.423C781.693 327.208 779.889 325.716 777.911 325.716C777.322 325.716 775.5 325.716 774.252 326.965C773.419 327.798 771.581 328.977 767.522 329.914C763.949 330.729 760.671 331.145 757.809 331.145C751.113 331.145 745.737 328.769 741.383 323.878C736.995 318.969 734.775 311.129 734.775 300.583C734.775 290.038 736.943 282.18 741.192 277.254C745.407 272.38 750.836 270.021 757.791 270.021C759.786 270.021 762.266 270.42 765.163 271.218C769.152 272.328 770.019 272.987 770.089 273.04C771.511 274.254 772.881 274.843 774.286 274.843C778.015 274.843 781.571 271.166 785.821 262.91C789.619 255.521 791.475 249.398 791.475 244.195C791.475 238.176 787.087 233.51 778.414 230.302C770.679 227.44 761.642 226 751.564 226C733.248 226 717.742 232.886 705.479 246.467C693.32 259.961 687.145 278.642 687.145 301.988C687.145 325.335 693.147 343.772 704.993 356.729C716.909 369.755 732.312 376.363 750.767 376.363C762.058 376.363 772.014 374.75 780.357 371.541C789.602 368.003 794.285 362.886 794.285 356.365C794.285 353.295 793.296 349.253 791.267 343.963C789.307 338.846 787.122 334.631 784.763 331.423H784.78Z" fill="#223F82"/>
<path d="M911.902 231.412C898.928 231.412 890.29 232.556 890.29 238.141V289.361L863.613 238.003L863.527 237.847C861.792 234.967 857.907 233.215 851.264 232.331C845.592 231.585 840.562 231.203 836.312 231.203C824.414 231.203 817.528 232.175 817.528 237.118V371.611C817.528 376.363 823.356 378.133 839.036 378.133C854.715 378.133 860.543 376.363 860.543 371.611V320.686L888.642 373.189C890.134 375.999 894.522 377.751 911.711 377.751C923.037 377.751 933.514 376.884 933.514 370.622V238.141C933.514 232.556 924.876 231.412 911.902 231.412Z" fill="#223F82"/>
<path fill-rule="evenodd" clip-rule="evenodd" d="M498.361 244.871C486.185 232.348 470.037 226 450.35 226C430.664 226 414.342 232.452 401.837 245.166C389.348 257.863 383 276.647 383 300.982C383 325.317 389.262 344.136 401.611 356.972C413.978 369.842 430.178 376.363 449.743 376.363C469.308 376.363 485.491 370.102 497.928 357.718C510.364 345.351 516.678 326.393 516.678 301.381C516.678 276.37 510.52 257.377 498.361 244.871ZM460.202 288.997C460.098 291.928 458.121 294.235 455.797 294.148C453.455 294.062 451.651 291.633 451.755 288.702C451.859 285.771 453.837 283.464 456.161 283.551C458.503 283.637 460.306 286.066 460.202 288.997ZM448.234 288.997C448.13 291.928 446.153 294.235 443.829 294.148C441.487 294.062 439.683 291.633 439.787 288.702C439.891 285.771 441.869 283.464 444.193 283.551C446.535 283.637 448.338 286.066 448.234 288.997ZM463.88 323.878C460.202 328.89 455.571 331.336 449.743 331.336C443.915 331.336 439.319 328.925 435.711 323.982C431.947 318.83 430.04 311.146 430.04 301.173C430.04 291.2 432.052 283.429 436.006 278.07C436.544 277.358 437.082 276.699 437.654 276.075C438.868 277.723 438.99 280.151 437.168 283.377C435.347 286.586 433.751 291.98 434.324 295.345C435.104 299.994 440.724 306.966 442.077 310.834C443.43 314.702 446.725 314.962 449.865 314.962C453.004 314.962 456.317 314.702 457.653 310.834C459.006 306.966 464.625 300.011 465.406 295.345C465.978 291.98 464.383 286.586 462.561 283.377C460.705 280.099 460.862 277.653 462.128 276.005C462.665 276.595 463.203 277.22 463.723 277.896C467.661 283.117 469.673 290.853 469.673 300.878C469.673 310.904 467.73 318.657 463.897 323.895L463.88 323.878Z" fill="#223F82"/>
<path d="M541.703 339.453C540.402 346.981 548.45 358.446 554.92 364.656C561.164 370.657 569.264 375.236 577 380.093C581.406 382.868 586.904 385.938 590.026 389.667C601.214 404.826 587.026 417.939 587.026 417.939C584.528 411.331 577.226 406.526 569.889 402.936C562.569 399.328 554.591 396.31 548.728 391.159C541.738 385.036 539.067 376.519 538.442 368.454C537.818 360.406 538.945 347.033 541.703 339.453Z" fill="#F27F20"/>
<path d="M539.657 383.492C541.582 389.181 547.323 393.743 553.463 397.16C559.586 400.577 566.35 403.231 572.161 407.012C576.22 409.666 579.81 413.083 581.701 416.881C581.579 416.794 577.815 414.227 568.224 415.268C568.224 415.268 557.574 416.222 550.063 412.875C549.699 412.701 549.335 412.51 548.971 412.319C546.751 411.261 544.739 409.978 543.073 408.347C539.552 404.896 538.026 400.421 537.818 396.119C537.61 391.818 538.633 387.62 539.639 383.457L539.657 383.492Z" fill="#F27F20"/>
<path d="M658.383 308.77C660.291 308.77 666.032 310.21 666.032 310.21C666.032 310.21 661.245 306.151 652.642 303.046C648.687 301.624 643.987 300.843 640.049 300.427C649.398 292.986 656.215 282.354 654.376 270.247C651.653 252.243 637.794 238.384 622.236 233.718C596.808 226.104 575.682 231.255 561.268 241.437C555.805 245.288 551.087 252.746 548.399 258.053C546.074 262.667 544.444 266.917 543.316 271.027H543.004V272.294C539.483 286.378 541.894 298.797 543.004 317.13V336.297C543.004 339.505 549.214 353.902 558.198 362.106C570.496 373.345 586.471 379.694 586.471 379.694C586.471 377.786 586.679 354.058 587.217 346.946L587.546 312.759C597.068 313.037 613.095 315.934 631.81 305.856C633.094 305.162 634.377 304.399 635.626 303.601C638.592 304.26 642.148 305.249 645.894 306.723C655.608 310.557 662.719 316.02 662.719 316.02L661.626 314.511C660.534 313.002 656.458 308.77 656.458 308.77H658.383ZM612.193 276.058C612.193 281.105 608.1 285.181 603.07 285.181C598.04 285.181 593.946 281.088 593.946 276.058V265.529C593.946 260.482 598.04 256.406 603.07 256.406C608.1 256.406 612.193 260.499 612.193 265.529V276.058Z" fill="#223F82"/>
</svg>
