<?xml version="1.0" encoding="UTF-8"?>
<svg id="Layer_2" data-name="Layer 2" xmlns="http://www.w3.org/2000/svg" viewBox="0 0 212.56 277.41">
  <defs>
    <style>
      .cls-1 {
        fill: #f27f20;
      }

      .cls-2, .cls-3 {
        fill: #223f82;
      }

      .cls-3 {
        fill-rule: evenodd;
      }
    </style>
  </defs>
  <g id="Layer_1-2" data-name="Layer 1">
    <g>
      <g>
        <g>
          <path class="cls-1" d="M49.8,47.06c-2.21,12.75,7.25,25.87,19.31,35.12,12.06,9.25,26.71,15.78,39.8,24.01,7.45,4.69,14.53,10.26,19.81,16.57,18.96,25.68-5.35,45.65-5.35,45.65-4.23-11.19-16.37-17.08-28.78-23.19-12.42-6.11-25.92-11.24-35.85-19.95-11.85-10.39-17.11-24.78-17.43-38.47-.32-13.69,3.83-26.9,8.5-39.75Z"/>
          <path class="cls-1" d="M43.38,113.87c3.25,9.64,13,17.36,23.39,23.17,10.39,5.81,21.2,11.42,31.69,16.7,7.6,3.83,15.5,8.62,18.69,15.06-.21-.14-8.71.58-24.74.22,0,0-18.66.35-31.4-5.33-.62-.31-1.25-.61-1.85-.94h.01c-3.75-1.78-7.16-3.96-9.99-6.72-5.98-5.84-8.56-13.42-8.9-20.71-.34-7.29,1.38-14.41,3.09-21.45Z"/>
          <path class="cls-2" d="M151.37,62.2h1.51c1.51,0,6.05,1.13,6.05,1.13,0,0-3.78-3.21-10.58-5.67-3.12-1.13-6.84-1.74-9.95-2.07,7.38-5.88,12.78-14.28,11.33-23.85-2.16-14.23-13.11-25.19-25.41-28.87-27.71-8.29-48.96,2.59-58.75,16.61-11.7,16.75-16.35,34.63-1.74,48.91.58.57,4.12,4.83,9.24,8.27,9.83,6.6,25,14.53,34,20.09,11.93,7.36,20.56,17.11,20.56,17.11,0,0-.54-14.15-14.21-25.18-9.04-7.3-25.6-14.76-23.58-20.62,2.52-7.3,19.91,3.75,42.04-8.18,1.02-.55,2.03-1.15,3.02-1.78,2.34.52,5.16,1.3,8.12,2.47,7.68,3.03,13.3,7.35,13.3,7.35l-.87-1.19c-.87-1.19-4.09-4.54-4.09-4.54ZM108.47,42.39h0c-4.1,0-7.42-3.32-7.42-7.42v-8.56c0-4.1,3.32-7.42,7.42-7.42h0c4.1,0,7.42,3.32,7.42,7.42v8.56c0,4.1-3.32,7.42-7.42,7.42Z"/>
        </g>
        <path class="cls-2" d="M138.15,131.78s14.56,3.24,24.19-2.36c9.63-5.61,9.48-13.62,9.48-13.62,0,0,3.81,25.77-9.6,36.68-13.41,10.91-28.08,12.99-28.08,12.99,0,0,4.62-7.18,6.12-16.55,1.57-9.78-2.1-17.14-2.1-17.14Z"/>
      </g>
      <g>
        <path class="cls-2" d="M87.32,180.19c-.33-.61-1.1-.86-3.27-1.08-1.84-.19-3.45-.28-4.79-.28-5.83,0-8.91.96-9.69,3.03l-4.77,11.57-4.13-11.53c-.71-2.14-3.95-3.14-10.18-3.14-1.44,0-3.24.13-5.33.38-2.76.34-3.32.64-3.6,1.24-.15.32-.13.69.04,1l14.6,28.66v16.06c0,1.87,2.48,2.42,4.65,2.7,1.26.14,2.54.21,3.81.21s2.58-.1,3.89-.28c2.16-.27,4.63-.82,4.63-2.63v-16.48l14.14-28.41c.16-.33.16-.72-.02-1.04Z"/>
        <path class="cls-2" d="M117.68,213.27c-1.05-1.44-1.67-1.95-2.34-1.95-.2,0-.82,0-1.25.43-.28.28-.91.69-2.3,1-1.22.28-2.33.42-3.31.42-2.28,0-4.11-.81-5.59-2.48-1.49-1.67-2.25-4.34-2.25-7.94s.74-6.27,2.19-7.95c1.44-1.66,3.29-2.47,5.65-2.47.68,0,1.53.14,2.51.41,1.36.38,1.65.6,1.68.62.49.41.95.61,1.43.61,1.27,0,2.48-1.25,3.93-4.06,1.3-2.52,1.92-4.6,1.92-6.38,0-2.05-1.5-3.64-4.45-4.73h0c-2.63-.97-5.71-1.47-9.14-1.47-6.25,0-11.53,2.35-15.7,6.97-4.15,4.6-6.25,10.96-6.25,18.91s2.05,14.23,6.08,18.65c4.06,4.44,9.3,6.69,15.59,6.69,3.85,0,7.24-.55,10.08-1.64,3.15-1.21,4.75-2.95,4.75-5.17,0-1.04-.34-2.43-1.03-4.22-.67-1.74-1.41-3.18-2.21-4.27Z"/>
        <path class="cls-2" d="M203.03,177.97c-4.42,0-7.36.39-7.36,2.29v17.45l-9.09-17.49-.03-.05c-.59-.98-1.92-1.58-4.18-1.88-1.93-.26-3.65-.39-5.09-.39-4.05,0-6.4.33-6.4,2.02v45.82c0,1.62,1.99,2.22,7.33,2.22s7.33-.6,7.33-2.22v-17.35l9.57,17.88c.51.96,2,1.55,7.86,1.55,3.86,0,7.43-.29,7.43-2.43v-45.13c0-1.9-2.94-2.29-7.36-2.29Z"/>
        <path class="cls-2" d="M31.72,273.83v-38.39c0-1.07.27-1.91.8-2.53.53-.62,1.23-.93,2.08-.93h10.69c6.78,0,11.93,1.71,15.45,5.12,3.52,3.41,5.28,8.79,5.28,16.12,0,15.7-6.7,23.55-20.09,23.55h-10.94c-2.18,0-3.26-.98-3.26-2.94ZM44.01,244.14v19.13c0,.9.06,1.46.19,1.7.13.23.51.35,1.15.35,2.35,0,4.13-.87,5.34-2.62,1.22-1.75,1.82-4.66,1.82-8.73s-.63-6.73-1.89-7.97c-1.26-1.24-3.25-1.86-5.98-1.86h-.64Z"/>
        <g>
          <path class="cls-1" d="M101.86,276.77h-21.24c-1.49,0-2.54-1.45-3.14-4.35-.3-1.58-.45-2.77-.45-3.58s.13-1.34.38-1.6c9.55-9.85,14.33-16.55,14.33-20.09,0-1.19-.31-2.09-.93-2.69-.62-.6-1.6-.9-2.94-.9s-2.69.26-4.03.77c-1.34.51-2.4,1.07-3.17,1.66-1.66-2-2.81-4.12-3.45-6.33-.21-.73-.32-1.4-.32-2.02s.11-1.21.32-1.76c.34-1.11,1.93-2.15,4.77-3.14,2.84-.98,5.83-1.47,8.99-1.47,9.55,0,14.33,4.25,14.33,12.73,0,3.75-1.28,7.56-3.84,11.42-2.56,3.86-5.55,7.2-8.96,10.01l12.93-.51c.21,2.26.32,4.22.32,5.89s-.34,3.07-1.02,4.22c-.68,1.15-1.64,1.73-2.88,1.73Z"/>
          <path class="cls-1" d="M128.19,277.41c-5.35,0-9.73-1.96-13.12-5.89-3.39-3.92-5.09-9.66-5.09-17.21s1.71-13.26,5.12-17.12c3.41-3.86,7.82-5.79,13.21-5.79s9.76,1.92,13.09,5.76c3.33,3.84,4.99,9.62,4.99,17.34s-1.7,13.47-5.09,17.24c-3.39,3.78-7.76,5.66-13.12,5.66ZM128.19,243.69c-1.64,0-3.03.93-4.16,2.78-1.13,1.86-1.7,4.49-1.7,7.9s.54,6.03,1.63,7.84c1.09,1.81,2.5,2.72,4.22,2.72s3.13-.92,4.22-2.75c1.09-1.83,1.63-4.46,1.63-7.87s-.57-6.04-1.7-7.87c-1.13-1.83-2.52-2.75-4.16-2.75Z"/>
          <path class="cls-1" d="M176.34,276.77h-21.24c-1.49,0-2.54-1.45-3.14-4.35-.3-1.58-.45-2.77-.45-3.58s.13-1.34.38-1.6c9.55-9.85,14.33-16.55,14.33-20.09,0-1.19-.31-2.09-.93-2.69-.62-.6-1.6-.9-2.94-.9s-2.69.26-4.03.77c-1.34.51-2.4,1.07-3.17,1.66-1.66-2-2.81-4.12-3.45-6.33-.21-.73-.32-1.4-.32-2.02s.11-1.21.32-1.76c.34-1.11,1.93-2.15,4.77-3.14,2.84-.98,5.83-1.47,8.99-1.47,9.55,0,14.33,4.25,14.33,12.73,0,3.75-1.28,7.56-3.84,11.42-2.56,3.86-5.55,7.2-8.96,10.01l12.93-.51c.21,2.26.32,4.22.32,5.89s-.34,3.07-1.02,4.22c-.68,1.15-1.64,1.73-2.88,1.73Z"/>
          <path class="cls-1" d="M209.55,231.98c.81,0,1.22,1.77,1.22,5.31,0,1.11-.1,2.42-.29,3.94-.19,1.51-.54,2.27-1.06,2.27h-12.48l-.06,4.67h2.11c4.56,0,7.97,1.32,10.21,3.97,2.24,2.65,3.36,6.14,3.36,10.49s-1.54,7.9-4.61,10.65c-3.07,2.75-7.02,4.13-11.84,4.13s-8.34-.68-10.56-2.05c-.34-.55-.51-1.42-.51-2.59s.17-2.84.51-4.99c.34-2.15.81-3.23,1.41-3.23.04,0,.17.09.38.26,3.03,1.24,5.34,1.86,6.94,1.86s2.92-.44,3.97-1.31c1.05-.87,1.57-1.99,1.57-3.36,0-3.41-1.83-5.12-5.5-5.12l-5.5.06c-.43.09-.85-.1-1.28-.54-.43-.45-.64-1.03-.64-1.76v-20.03c0-1.75.64-2.62,1.92-2.62h20.73Z"/>
        </g>
        <path class="cls-3" d="M161.14,183.79c-4.15-4.27-9.65-6.43-16.36-6.43s-12.27,2.2-16.53,6.53c-4.26,4.33-6.41,10.72-6.41,19.01s2.13,14.7,6.34,19.08c4.22,4.38,9.73,6.6,16.4,6.6s12.18-2.14,16.42-6.35c4.24-4.21,6.39-10.67,6.39-19.19s-2.1-14.99-6.24-19.25ZM148.14,198.82c-.03,1-.71,1.79-1.5,1.76-.8-.03-1.41-.86-1.38-1.86.03-1,.71-1.79,1.5-1.76.8.03,1.41.86,1.38,1.86ZM144.07,198.82c-.03,1-.71,1.79-1.5,1.76-.8-.03-1.41-.86-1.38-1.86.03-1,.71-1.79,1.5-1.76.8.03,1.41.86,1.38,1.86ZM149.39,210.7c-1.25,1.71-2.83,2.54-4.82,2.54s-3.55-.82-4.78-2.5c-1.28-1.76-1.93-4.37-1.93-7.77s.68-6.04,2.03-7.87c.18-.25.37-.47.56-.68.41.56.45,1.39-.17,2.49-.62,1.1-1.16,2.93-.97,4.08.27,1.59,2.18,3.96,2.64,5.27.46,1.32,1.58,1.41,2.65,1.41s2.2-.09,2.65-1.41c.46-1.32,2.37-3.69,2.64-5.27.19-1.15-.35-2.98-.97-4.08-.63-1.12-.58-1.95-.15-2.51.19.2.37.41.54.65,1.34,1.78,2.03,4.41,2.03,7.83s-.66,6.06-1.97,7.84Z"/>
        <path class="cls-2" d="M18.81,245.53v20.23h4.48c.72,0,1.24.92,1.54,2.75.17.9.26,1.81.26,2.75s-.09,1.86-.26,2.75c-.3,1.83-.81,2.75-1.54,2.75H1.73c-.73,0-1.22-.92-1.47-2.75-.17-.9-.26-1.81-.26-2.75s.09-1.86.26-2.75c.26-1.83.75-2.75,1.47-2.75h4.42v-20.23c0-1.41,1.14-2.55,2.55-2.55h7.57c1.41,0,2.55,1.14,2.55,2.55Z"/>
        <g>
          <path class="cls-1" d="M4.72,216.01c-.44,2.56,2.3,6.47,4.5,8.59s4.89,3.61,7.52,5.26c1.5.94,3.37,1.99,4.44,3.26,3.81,5.16-1.02,9.63-1.02,9.63-.85-2.25-3.34-3.89-5.84-5.11-2.5-1.23-5.21-2.26-7.21-4.01-2.38-2.09-3.29-4.99-3.5-7.73-.21-2.74.17-7.3,1.11-9.88Z"/>
          <path class="cls-1" d="M4.03,231.01c.65,1.94,2.61,3.49,4.7,4.66,2.09,1.17,4.39,2.07,6.37,3.36,1.38.9,2.61,2.07,3.25,3.36-.04-.03-1.32-.9-4.59-.55,0,0-3.63.33-6.19-.81-.13-.06-.25-.12-.37-.19h0c-.75-.36-1.44-.8-2.01-1.35-1.2-1.17-1.72-2.7-1.79-4.16-.07-1.47.28-2.9.62-4.31Z"/>
        </g>
        <path class="cls-2" d="M43.82,205.55h.65c.65,0,2.61.49,2.61.49,0,0-1.63-1.38-4.56-2.44-1.35-.49-2.95-.75-4.29-.89,3.18-2.53,5.51-6.16,4.88-10.28-.93-6.13-5.65-10.86-10.95-12.44-8.66-2.59-15.86-.84-20.77,2.63-1.86,1.31-3.47,3.85-4.38,5.66-.79,1.57-1.35,3.02-1.73,4.42h-.1s0,.43,0,.43c-1.2,4.8-.38,9.03,0,15.28v6.53c0,1.09,2.12,6,5.17,8.79,4.19,3.83,9.63,5.99,9.63,5.99,0-.65.07-8.73.25-11.16l.11-11.65c3.25.09,8.7,1.08,15.08-2.35.44-.24.87-.49,1.3-.77,1.01.22,2.22.56,3.5,1.06,3.31,1.3,5.73,3.17,5.73,3.17l-.37-.51c-.37-.51-1.76-1.96-1.76-1.96ZM28.74,194.41c0,1.72-1.39,3.11-3.11,3.11s-3.11-1.39-3.11-3.11v-3.59c0-1.72,1.39-3.11,3.11-3.11s3.11,1.39,3.11,3.11v3.59Z"/>
      </g>
    </g>
  </g>
</svg>